<svg width="28" height="28" viewBox="0 0 28 28" fill="none" xmlns="http://www.w3.org/2000/svg">
  <path d="M5.25 6.6C5.25 5.606 6.056 4.8 7.05 4.8H12.1C13.15 4.8 14 5.65 14 6.7V23.2C14 21.543 12.657 20.2 11 20.2H7.05C6.056 20.2 5.25 19.394 5.25 18.4V6.6Z" stroke="#2D62EB" stroke-width="2.2" stroke-linecap="round" stroke-linejoin="round"/>
  <path d="M22.75 6.6C22.75 5.606 21.944 4.8 20.95 4.8H15.9C14.85 4.8 14 5.65 14 6.7V23.2C14 21.543 15.343 20.2 17 20.2H20.95C21.944 20.2 22.75 19.394 22.75 18.4V6.6Z" stroke="#2D62EB" stroke-width="2.2" stroke-linecap="round" stroke-linejoin="round"/>
</svg>
