<svg width="28" height="28" viewBox="0 0 28 28" fill="none" xmlns="http://www.w3.org/2000/svg">
  <path d="M23.8 16.2884C22.7417 17.788 20.9489 18.8 18.9 18.8C15.4854 18.8 12.7 16.1061 12.7 12.8C12.7 10.6276 13.8646 8.74626 15.5894 7.66943C15.1278 7.57867 14.6483 7.53 14.1558 7.53C9.97114 7.53 6.6 10.7687 6.6 14.795C6.6 18.8214 9.97114 22.06 14.1558 22.06C17.8208 22.06 20.8588 19.5857 21.5345 16.3759C20.9837 16.5056 20.4037 16.575 19.8081 16.575C19.3015 16.575 18.8064 16.5227 18.3284 16.422C18.7066 16.2205 19.1379 15.9226 19.513 15.532C20.338 14.6752 21.0547 13.5787 21.0547 12.225C21.0547 11.0884 20.60 10.0816 19.9084 9.30598C22.0205 10.674 23.8 13.2526 23.8 16.2884Z" stroke="#007AFF" stroke-width="2.2" stroke-linejoin="round"/>
</svg>
