<svg width="28" height="28" viewBox="0 0 28 28" fill="none" xmlns="http://www.w3.org/2000/svg">
  <path d="M14 17.4C15.878 17.4 17.4 15.878 17.4 14C17.4 12.122 15.878 10.6 14 10.6C12.122 10.6 10.6 12.122 10.6 14C10.6 15.878 12.122 17.4 14 17.4Z" stroke="#102A56" stroke-width="2.2"/>
  <path d="M22.9 15.7V12.3L20.55 11.55C20.32 10.85 20.02 10.2 19.62 9.6L20.75 7.4L18.35 5L16.15 6.13C15.55 5.75 14.88 5.45 14.2 5.25L13.4 2.9H10L9.25 5.25C8.55 5.48 7.9 5.78 7.3 6.18L5.1 5.05L2.7 7.45L3.83 9.65C3.45 10.25 3.15 10.92 2.95 11.6L0.6 12.4V15.8L2.95 16.55C3.18 17.25 3.48 17.9 3.88 18.5L2.75 20.7L5.15 23.1L7.35 21.97C7.95 22.35 8.62 22.65 9.3 22.85L10.1 25.2H13.5L14.25 22.85C14.95 22.62 15.6 22.32 16.2 21.92L18.4 23.05L20.8 20.65L19.67 18.45C20.05 17.85 20.35 17.18 20.55 16.5L22.9 15.7Z" stroke="#102A56" stroke-width="2" stroke-linejoin="round" transform="translate(2.25 0) scale(.84)"/>
</svg>
